# File exported by Houdini 18.0.460 (www.sidefx.com)
# 28 points
# 108 vertices
# 36 primitives
# Bounds: [-1.82120419, 1.02683139, 1.26951122] to [1.30604303, 2.46261954, 5.0575552]
g 
v -1.6738677 1.03667784 1.26951122
v 1.30604303 1.03667784 1.38919675
v 1.1587075 1.03661382 5.0575304
v -1.82120323 1.03661382 4.93784475
v -1.67386866 2.46261954 1.26953602
v 1.30604208 2.46261954 1.38922167
v 1.15870655 2.46255541 5.0575552
v -1.82120419 2.46255541 4.93787003
v 0.162783265 2.46260023 2.4441905
v -0.618899822 2.46260023 2.41279507
v -0.677945375 2.46257472 3.88290095
v 0.103737593 2.46257472 3.91429663
v -1.24567544 1.02683139 3.79806757
v -0.889972091 1.02683139 3.93176508
v -1.13962924 1.02683139 4.59597874
v -1.4953326 1.02683139 4.46228123
v -1.24567544 1.23786128 3.79806757
v -0.889972091 1.23786128 3.93176508
v -1.13962924 1.23786128 4.59597874
v -1.4953326 1.23786128 4.46228123
v -1.28077459 1.02683151 2.71088219
v -0.920169473 1.02683151 2.59103251
v -0.751398981 1.02683151 3.09883118
v -1.11200404 1.02683151 3.21868086
v -1.28077459 1.79604506 2.71088219
v -0.920169473 1.79604506 2.59103251
v -0.751398981 1.79604506 3.09883118
v -1.11200404 1.79604506 3.21868086
vn -0.0401318036 -1.74613924e-05 0.999194384
vn -0.040131785 -1.74252127e-05 0.999194384
vn -0.0401317813 -1.74014422e-05 0.999194443
vn -6.99768066e-07 1 1.74227043e-05
vn -6.99767952e-07 1 1.74227043e-05
vn -6.99768123e-07 1 1.74227025e-05
vn 7.46310377e-07 -1 -1.74968936e-05
vn 5.91680191e-07 -1 -1.74379638e-05
vn 6.71267856e-07 -1 -1.74682937e-05
vn 6.71267856e-07 -1 -1.74682937e-05
vn 7.19781553e-07 -1 -1.74867837e-05
vn 7.46309468e-07 -0.99999994 -1.74968936e-05
vn 7.46309468e-07 -0.99999994 -1.74968936e-05
vn 5.91675189e-07 -1 -1.74379657e-05
vn 6.71264615e-07 -1 -1.74682973e-05
vn 6.71264615e-07 -1 -1.74682973e-05
vn 7.19778882e-07 -1 -1.74867873e-05
vn 7.46310377e-07 -1 -1.74968936e-05
vn 0.351835698 -0 -0.936061859
vn 0.351835698 -0 -0.936061859
vn 0.351835668 -0 -0.936061859
vn 0.936061561 0 0.351836294
vn 0.936061561 0 0.351836294
vn 0.936061561 -0 0.351836294
vn -0.351835698 -0 0.936061859
vn -0.351835698 -0 0.936061859
vn -0.351835668 -0 0.936061859
vn -0.936061561 0 -0.351836294
vn -0.936061561 0 -0.351836294
vn -0.936061561 0 -0.351836294
vn 0 -1 0
vn 0 -1 0
vn 0 -1 0
vn 0 1 0
vn 0 1 0
vn 0 1 0
vn -0.315393895 0 -0.9489609
vn -0.315393895 0 -0.9489609
vn -0.315393895 0 -0.9489609
vn 0.948960841 -0 -0.315393865
vn 0.948960841 -0 -0.315393865
vn 0.9489609 -0 -0.315393895
vn 0.315393925 0 0.948960841
vn 0.315393925 0 0.948960841
vn 0.315393955 -0 0.9489609
vn -0.948960841 -0 0.315393955
vn -0.948960841 -0 0.315393955
vn -0.948960781 -0 0.315393955
vn 0 -1 0
vn 0 -1 0
vn 0 -1 0
vn 0 1 0
vn 0 1 0
vn 0 1 0
vn 0 1 0
vn 0 1 0
vn 0 1 0
vn 0 -1 0
vn 0 -1 0
vn 0 -1 0
vn -0.948960841 -0 0.315393955
vn -0.948960841 -0 0.315393955
vn -0.948960781 -0 0.315393955
vn 0.315393925 0 0.948960841
vn 0.315393925 0 0.948960841
vn 0.315393955 0 0.9489609
vn 0.948960841 -0 -0.315393865
vn 0.948960841 -0 -0.315393865
vn 0.9489609 -0 -0.315393895
vn -0.315393895 0 -0.9489609
vn -0.315393895 0 -0.9489609
vn -0.315393895 -0 -0.9489609
vn 0 1 0
vn 0 1 0
vn 0 1 0
vn 0 -1 0
vn 0 -1 0
vn 0 -1 0
vn -0.936061561 0 -0.351836294
vn -0.936061561 0 -0.351836294
vn -0.936061561 -0 -0.351836294
vn -0.351835698 -0 0.936061859
vn -0.351835698 -0 0.936061859
vn -0.351835668 -0 0.936061859
vn 0.936061561 0 0.351836294
vn 0.936061561 0 0.351836294
vn 0.936061561 0 0.351836294
vn 0.351835698 -0 -0.936061859
vn 0.351835698 -0 -0.936061859
vn 0.351835668 -0 -0.936061859
vn 7.19778882e-07 -1 -1.74867873e-05
vn 6.71264615e-07 -1 -1.74682973e-05
vn 5.91675189e-07 -1 -1.74379657e-05
vn 5.91675189e-07 -1 -1.74379657e-05
vn 7.46309468e-07 -0.99999994 -1.74968936e-05
vn 7.19781553e-07 -1 -1.74867837e-05
vn 7.19781553e-07 -1 -1.74867837e-05
vn 6.71267856e-07 -1 -1.74682937e-05
vn 5.91680191e-07 -1 -1.74379638e-05
vn 5.91680191e-07 -1 -1.74379638e-05
vn 7.46310377e-07 -1 -1.74968936e-05
vn 7.19778882e-07 -1 -1.74867873e-05
vn -6.99767952e-07 1 1.74227043e-05
vn -6.99768066e-07 1 1.74227043e-05
vn -6.99767781e-07 1 1.74227025e-05
vn -0.040131785 -1.74252127e-05 0.999194384
vn -0.0401318036 -1.74613924e-05 0.999194384
vn -0.0401318111 -1.7485163e-05 0.999194443
g 
f 2//1 5//2 1//3
f 3//4 1//5 4//6
f 6//7 10//8 5//9
f 5//10 11//11 8//12
f 8//13 12//14 7//15
f 7//16 9//17 6//18
f 14//19 17//20 18//21
f 15//22 18//23 19//24
f 16//25 19//26 20//27
f 13//28 20//29 17//30
f 15//31 13//32 14//33
f 18//34 20//35 19//36
f 22//37 25//38 26//39
f 23//40 26//41 27//42
f 24//43 27//44 28//45
f 21//46 28//47 25//48
f 23//49 21//50 22//51
f 26//52 28//53 27//54
f 28//55 26//56 25//57
f 21//58 23//59 24//60
f 28//61 21//62 24//63
f 27//64 24//65 23//66
f 26//67 23//68 22//69
f 25//70 22//71 21//72
f 20//73 18//74 17//75
f 13//76 15//77 16//78
f 20//79 13//80 16//81
f 19//82 16//83 15//84
f 18//85 15//86 14//87
f 17//88 14//89 13//90
f 9//91 7//92 12//93
f 12//94 8//95 11//96
f 11//97 5//98 10//99
f 10//100 6//101 9//102
f 1//103 3//104 2//105
f 5//106 2//107 6//108
